<svg width="49" height="48" viewBox="0 0 49 48" fill="none" xmlns="http://www.w3.org/2000/svg">
<ellipse cx="24.5" cy="24" rx="24.5" ry="24" fill="#D4FF00"/>
<path d="M25.8278 10.5835C27.2809 10.5874 28.0184 10.5951 28.6552 10.6132L28.9058 10.6222C29.1951 10.6326 29.4806 10.6455 29.8255 10.661C31.1998 10.7256 32.1376 10.9426 32.9603 11.2616C33.8128 11.5897 34.531 12.034 35.2492 12.7509C35.906 13.3966 36.4142 14.1777 36.7385 15.0397C37.0575 15.8625 37.2745 16.8003 37.3391 18.1759C37.3546 18.5195 37.3675 18.805 37.3778 19.0956L37.3856 19.3462C37.405 19.9817 37.4127 20.7192 37.4153 22.1723L37.4166 23.1359V24.828C37.4198 25.7701 37.4099 26.7123 37.3869 27.6542L37.3791 27.9047C37.3688 28.1954 37.3559 28.4808 37.3404 28.8244C37.2758 30.2 37.0562 31.1365 36.7385 31.9606C36.4151 32.8231 35.9068 33.6044 35.2492 34.2494C34.6033 34.906 33.8223 35.4142 32.9603 35.7387C32.1376 36.0577 31.1998 36.2747 29.8255 36.3393C29.519 36.3538 29.2124 36.3667 28.9058 36.3781L28.6552 36.3858C28.0184 36.4039 27.2809 36.413 25.8278 36.4155L24.8642 36.4168H23.1734C22.2308 36.4201 21.2882 36.4102 20.3459 36.3871L20.0953 36.3794C19.7887 36.3678 19.4822 36.3544 19.1757 36.3393C17.8013 36.2747 16.8636 36.0577 16.0395 35.7387C15.1775 35.415 14.3968 34.9067 13.752 34.2494C13.0946 33.6039 12.5859 32.8228 12.2614 31.9606C11.9423 31.1378 11.7253 30.2 11.6608 28.8244C11.6464 28.5179 11.6335 28.2114 11.622 27.9047L11.6156 27.6542C11.5918 26.7123 11.581 25.7702 11.5833 24.828V22.1723C11.5797 21.2302 11.5891 20.288 11.6117 19.3462L11.6207 19.0956C11.6311 18.805 11.644 18.5195 11.6595 18.1759C11.7241 16.8003 11.9411 15.8638 12.2601 15.0397C12.5845 14.1768 13.0942 13.3955 13.7533 12.7509C14.3979 12.0941 15.1782 11.5858 16.0395 11.2616C16.8636 10.9426 17.8001 10.7256 19.1757 10.661C19.5193 10.6455 19.806 10.6326 20.0953 10.6222L20.3459 10.6145C21.2878 10.5915 22.2299 10.5816 23.1721 10.5848L25.8278 10.5835ZM24.4999 17.0418C22.7871 17.0418 21.1444 17.7223 19.9332 18.9334C18.722 20.1446 18.0416 21.7873 18.0416 23.5002C18.0416 25.213 18.722 26.8557 19.9332 28.0669C21.1444 29.2781 22.7871 29.9585 24.4999 29.9585C26.2128 29.9585 27.8555 29.2781 29.0667 28.0669C30.2778 26.8557 30.9583 25.213 30.9583 23.5002C30.9583 21.7873 30.2778 20.1446 29.0667 18.9334C27.8555 17.7223 26.2128 17.0418 24.4999 17.0418ZM24.4999 19.6252C25.0088 19.6251 25.5127 19.7252 25.9829 19.9199C26.453 20.1145 26.8803 20.3999 27.2402 20.7597C27.6 21.1194 27.8855 21.5466 28.0804 22.0167C28.2752 22.4868 28.3755 22.9906 28.3756 23.4995C28.3757 24.0084 28.2755 24.5123 28.0809 24.9825C27.8862 25.4526 27.6008 25.8799 27.2411 26.2397C26.8813 26.5996 26.4542 26.8851 25.9841 27.0799C25.514 27.2748 25.0101 27.3751 24.5012 27.3752C23.4735 27.3752 22.4879 26.9669 21.7612 26.2402C21.0345 25.5135 20.6262 24.5279 20.6262 23.5002C20.6262 22.4724 21.0345 21.4868 21.7612 20.7601C22.4879 20.0334 23.4735 19.6252 24.5012 19.6252M31.2825 15.1043C30.8543 15.1043 30.4436 15.2744 30.1408 15.5772C29.838 15.88 29.6679 16.2907 29.6679 16.7189C29.6679 17.1471 29.838 17.5578 30.1408 17.8606C30.4436 18.1634 30.8543 18.3335 31.2825 18.3335C31.7107 18.3335 32.1214 18.1634 32.4242 17.8606C32.7269 17.5578 32.8971 17.1471 32.8971 16.7189C32.8971 16.2907 32.7269 15.88 32.4242 15.5772C32.1214 15.2744 31.7107 15.1043 31.2825 15.1043Z" fill="#172224"/>
</svg>
