<svg width="122" height="48" viewBox="0 0 122 48" fill="none" xmlns="http://www.w3.org/2000/svg">
<path d="M24 37.5C22.2673 37.5015 20.5613 37.0736 19.0345 36.2546C17.5076 35.4355 16.2076 34.2509 15.2505 32.8065L17.7495 31.146C18.4336 32.1776 19.3624 33.0238 20.453 33.6092C21.5436 34.1946 22.7622 34.501 24 34.501C25.2378 34.501 26.4564 34.1946 27.547 33.6092C28.6376 33.0238 29.5664 32.1776 30.2505 31.146L32.7495 32.8065C31.7925 34.2509 30.4924 35.4355 28.9655 36.2546C27.4387 37.0736 25.7327 37.5015 24 37.5ZM30 21C29.4067 21 28.8266 21.176 28.3333 21.5056C27.8399 21.8353 27.4554 22.3038 27.2284 22.852C27.0013 23.4002 26.9419 24.0034 27.0576 24.5853C27.1734 25.1672 27.4591 25.7018 27.8787 26.1214C28.2982 26.5409 28.8328 26.8266 29.4147 26.9424C29.9967 27.0581 30.5999 26.9987 31.1481 26.7717C31.6962 26.5446 32.1648 26.1601 32.4944 25.6667C32.8241 25.1734 33 24.5934 33 24C33.004 23.605 32.9292 23.213 32.7798 22.8473C32.6305 22.4815 32.4096 22.1491 32.1303 21.8698C31.8509 21.5904 31.5186 21.3696 31.1528 21.2202C30.787 21.0709 30.3951 20.996 30 21ZM18 21C17.4067 21 16.8266 21.176 16.3333 21.5056C15.8399 21.8353 15.4554 22.3038 15.2284 22.852C15.0013 23.4002 14.9419 24.0034 15.0576 24.5853C15.1734 25.1672 15.4591 25.7018 15.8787 26.1214C16.2982 26.5409 16.8328 26.8266 17.4147 26.9424C17.9967 27.0581 18.5999 26.9987 19.1481 26.7717C19.6962 26.5446 20.1648 26.1601 20.4944 25.6667C20.8241 25.1734 21 24.5934 21 24C21.004 23.605 20.9292 23.213 20.7798 22.8473C20.6305 22.4815 20.4096 22.1491 20.1303 21.8698C19.8509 21.5904 19.5186 21.3696 19.1528 21.2202C18.787 21.0709 18.3951 20.996 18 21Z" fill="#D4FF00"/>
<path d="M45 24V21H42V15C41.998 13.4093 41.3652 11.8843 40.2404 10.7596C39.1157 9.63476 37.5907 9.00198 36 9H33V3H30V9H18V3H15V9H12C10.4093 9.00198 8.88434 9.63476 7.75955 10.7596C6.63476 11.8843 6.00198 13.4093 6 15V21H3V24H6V31.5H3V34.5H6V39C6.00198 40.5907 6.63476 42.1157 7.75955 43.2404C8.88434 44.3652 10.4093 44.998 12 45H36C37.5907 44.998 39.1157 44.3652 40.2404 43.2404C41.3652 42.1157 41.998 40.5907 42 39V34.5H45V31.5H42V24H45ZM39 39C38.9992 39.7954 38.6829 40.558 38.1204 41.1204C37.558 41.6829 36.7954 41.9992 36 42H12C11.2046 41.9992 10.442 41.6829 9.87956 41.1204C9.31712 40.558 9.00079 39.7954 9 39V15C9.00079 14.2046 9.31712 13.442 9.87956 12.8796C10.442 12.3171 11.2046 12.0008 12 12H36C36.7954 12.0008 37.558 12.3171 38.1204 12.8796C38.6829 13.442 38.9992 14.2046 39 15V39Z" fill="#D4FF00"/>
<path d="M65.707 9.4375C66.6185 9.48958 67.3672 9.84115 67.9531 10.4922C68.5391 11.1302 68.9622 11.8594 69.2227 12.6797C69.4831 13.5 69.6133 14.3398 69.6133 15.1992C69.6133 16.0586 69.4831 16.8984 69.2227 17.7188C68.9753 18.5391 68.5521 19.2747 67.9531 19.9258C67.3672 20.5638 66.6185 20.9089 65.707 20.9609H58.5195C58.168 20.9479 57.8685 20.8242 57.6211 20.5898C57.3867 20.3424 57.263 20.043 57.25 19.6914V14.8477C57.263 14.4831 57.3997 14.1836 57.6602 13.9492C57.9206 13.7018 58.2331 13.5781 58.5977 13.5781C58.9492 13.5911 59.2487 13.7214 59.4961 13.9688C59.7435 14.2031 59.8737 14.4961 59.8867 14.8477V17.8164C59.8867 18.168 60.069 18.3438 60.4336 18.3438H65.043C65.5378 18.3177 65.9479 18.1289 66.2734 17.7773C66.599 17.4258 66.8333 17.0286 66.9766 16.5859C67.1328 16.1302 67.2109 15.668 67.2109 15.1992C67.2109 14.7305 67.1328 14.2747 66.9766 13.832C66.8333 13.3763 66.599 12.9727 66.2734 12.6211C65.9479 12.2695 65.5378 12.0807 65.043 12.0547H58.5195C57.7383 11.9896 57.3151 11.5664 57.25 10.7852C57.25 10.4206 57.3672 10.1081 57.6016 9.84766C57.849 9.58724 58.1549 9.45052 58.5195 9.4375H65.707ZM82.6602 19.9258V15.2188C82.6602 14.8932 82.4909 14.724 82.1523 14.7109H75.3164C75.069 14.724 74.8542 14.8346 74.6719 15.043C74.4896 15.2383 74.3529 15.4727 74.2617 15.7461C74.1836 16.0065 74.1445 16.2734 74.1445 16.5469C74.1445 16.8073 74.1836 17.0742 74.2617 17.3477C74.3529 17.6081 74.4896 17.8424 74.6719 18.0508C74.8542 18.2461 75.069 18.3438 75.3164 18.3438H80.3164C80.681 18.3438 80.987 18.474 81.2344 18.7344C81.4948 18.9818 81.625 19.2878 81.625 19.6523C81.625 20.0169 81.4948 20.3229 81.2344 20.5703C80.987 20.8307 80.681 20.9609 80.3164 20.9609H75.3945C74.4831 20.9479 73.7279 20.694 73.1289 20.1992C72.543 19.6914 72.1198 19.125 71.8594 18.5C71.612 17.862 71.4883 17.2044 71.4883 16.5273C71.4883 15.8763 71.6185 15.2383 71.8789 14.6133C72.1393 13.9753 72.5625 13.4089 73.1484 12.9141C73.7344 12.4062 74.6003 12.1328 75.7461 12.0938H83.9492C84.3138 12.0938 84.6263 12.2174 84.8867 12.4648C85.1471 12.6992 85.2839 12.9987 85.2969 13.3633V19.9258C85.2969 20.2904 85.1602 20.5964 84.8867 20.8438C84.6263 21.0781 84.3138 21.1953 83.9492 21.1953C83.168 21.1302 82.7383 20.707 82.6602 19.9258ZM92.0547 9.125C92.4193 9.125 92.7318 9.2487 92.9922 9.49609C93.2526 9.73047 93.3893 10.0299 93.4023 10.3945V12.0938H100.043C100.408 12.0938 100.72 12.2174 100.98 12.4648C101.228 12.7253 101.352 13.0378 101.352 13.4023C101.352 13.7669 101.221 14.0794 100.961 14.3398C100.714 14.5872 100.408 14.7109 100.043 14.7109H93.4023V15.1016C93.3893 15.6354 93.4219 16.1302 93.5 16.5859C93.5911 17.0286 93.7995 17.4258 94.125 17.7773C94.4505 18.1289 94.8607 18.3177 95.3555 18.3438H100.121C100.486 18.3568 100.785 18.4935 101.02 18.7539C101.267 19.0143 101.391 19.3268 101.391 19.6914C101.378 20.043 101.247 20.3424 101 20.5898C100.766 20.8242 100.473 20.9479 100.121 20.9609H94.6914C93.7799 20.9089 93.0247 20.6029 92.4258 20.043C91.8398 19.4701 91.4167 18.7734 91.1562 17.9531C90.9089 17.1328 90.7786 16.2604 90.7656 15.3359V14.7109H88.5195C88.1549 14.7109 87.849 14.5807 87.6016 14.3203C87.3411 14.0729 87.2109 13.7669 87.2109 13.4023C87.2109 13.0378 87.3346 12.7318 87.582 12.4844C87.8424 12.224 88.1549 12.0938 88.5195 12.0938H90.7656V10.3945C90.7786 10.043 90.9089 9.75 91.1562 9.51562C91.4036 9.26823 91.7031 9.13802 92.0547 9.125ZM114.184 19.9258V15.2188C114.184 14.8932 114.014 14.724 113.676 14.7109H106.84C106.592 14.724 106.378 14.8346 106.195 15.043C106.013 15.2383 105.876 15.4727 105.785 15.7461C105.707 16.0065 105.668 16.2734 105.668 16.5469C105.668 16.8073 105.707 17.0742 105.785 17.3477C105.876 17.6081 106.013 17.8424 106.195 18.0508C106.378 18.2461 106.592 18.3438 106.84 18.3438H111.84C112.204 18.3438 112.51 18.474 112.758 18.7344C113.018 18.9818 113.148 19.2878 113.148 19.6523C113.148 20.0169 113.018 20.3229 112.758 20.5703C112.51 20.8307 112.204 20.9609 111.84 20.9609H106.918C106.007 20.9479 105.251 20.694 104.652 20.1992C104.066 19.6914 103.643 19.125 103.383 18.5C103.135 17.862 103.012 17.2044 103.012 16.5273C103.012 15.8763 103.142 15.2383 103.402 14.6133C103.663 13.9753 104.086 13.4089 104.672 12.9141C105.258 12.4062 106.124 12.1328 107.27 12.0938H115.473C115.837 12.0938 116.15 12.2174 116.41 12.4648C116.671 12.6992 116.807 12.9987 116.82 13.3633V19.9258C116.82 20.2904 116.684 20.5964 116.41 20.8438C116.15 21.0781 115.837 21.1953 115.473 21.1953C114.691 21.1302 114.262 20.707 114.184 19.9258ZM58.5391 29.125C58.9036 29.125 59.2161 29.2487 59.4766 29.4961C59.737 29.7305 59.8737 30.0299 59.8867 30.3945V35.1016C59.8737 35.6354 59.9062 36.1302 59.9844 36.5859C60.0755 37.0286 60.2839 37.4258 60.6094 37.7773C60.9349 38.1289 61.3451 38.3177 61.8398 38.3438H68.0898C68.4544 38.3568 68.7539 38.4935 68.9883 38.7539C69.2357 39.0143 69.3594 39.3268 69.3594 39.6914C69.3464 40.043 69.2161 40.3424 68.9688 40.5898C68.7344 40.8242 68.4414 40.9479 68.0898 40.9609H61.1758C60.2643 40.9089 59.5091 40.6029 58.9102 40.043C58.3242 39.4701 57.901 38.7734 57.6406 37.9531C57.3932 37.1328 57.263 36.2604 57.25 35.3359V30.3945C57.263 30.043 57.3932 29.75 57.6406 29.5156C57.888 29.2682 58.1875 29.138 58.5391 29.125ZM72.5625 31.8984C72.9141 31.9115 73.2135 32.0417 73.4609 32.2891C73.7083 32.5234 73.8385 32.8164 73.8516 33.168V39.9258C73.7734 40.707 73.3438 41.1302 72.5625 41.1953C72.1979 41.1953 71.8789 41.0781 71.6055 40.8438C71.3451 40.5964 71.2148 40.2904 71.2148 39.9258V33.168C71.2279 32.8034 71.3646 32.5039 71.625 32.2695C71.8854 32.0221 72.1979 31.8984 72.5625 31.8984ZM70.9219 29.3594C70.9219 28.9948 71.0781 28.6823 71.3906 28.4219C71.7031 28.1615 72.0807 28.0312 72.5234 28.0312C72.9661 28.0312 73.3438 28.1615 73.6562 28.4219C73.9688 28.6823 74.125 28.9948 74.125 29.3594C74.125 29.737 73.9688 30.056 73.6562 30.3164C73.3438 30.5768 72.9661 30.707 72.5234 30.707C72.0807 30.707 71.7031 30.5768 71.3906 30.3164C71.0781 30.056 70.9219 29.737 70.9219 29.3594ZM87.1914 35.2188C87.1914 34.8932 87.0221 34.724 86.6836 34.7109H79.8477C79.6003 34.724 79.3854 34.8346 79.2031 35.043C79.0208 35.2383 78.8841 35.4727 78.793 35.7461C78.7148 36.0065 78.6758 36.2734 78.6758 36.5469C78.6758 36.8073 78.7148 37.0742 78.793 37.3477C78.8841 37.6081 79.0208 37.8424 79.2031 38.0508C79.3854 38.2461 79.6003 38.3438 79.8477 38.3438H84.8477C85.2122 38.3438 85.5182 38.474 85.7656 38.7344C86.026 38.9818 86.1562 39.2878 86.1562 39.6523C86.1562 40.0169 86.026 40.3229 85.7656 40.5703C85.5182 40.8307 85.2122 40.9609 84.8477 40.9609H79.9258C79.0143 40.9479 78.2591 40.694 77.6602 40.1992C77.0742 39.6914 76.651 39.125 76.3906 38.5C76.1432 37.862 76.0195 37.2044 76.0195 36.5273C76.0195 35.8763 76.1497 35.2383 76.4102 34.6133C76.6706 33.9753 77.0938 33.4089 77.6797 32.9141C78.2656 32.4062 79.1315 32.1328 80.2773 32.0938H88.4805C88.8451 32.0938 89.1576 32.2174 89.418 32.4648C89.6784 32.6992 89.8151 32.9987 89.8281 33.3633V39.5352C89.8281 40.5768 89.6849 41.5599 89.3984 42.4844C89.138 43.3047 88.7083 43.9948 88.1094 44.5547C87.5234 45.1276 86.7747 45.4401 85.8633 45.4922H79.1055C78.7539 45.4792 78.4544 45.349 78.207 45.1016C77.9727 44.8672 77.849 44.5742 77.8359 44.2227C77.8359 43.8581 77.9531 43.5456 78.1875 43.2852C78.4349 43.0247 78.7409 42.888 79.1055 42.875H85.1992C85.694 42.849 86.1042 42.6602 86.4297 42.3086C86.7552 41.957 86.9635 41.5469 87.0547 41.0781C87.1458 40.6094 87.1914 40.0039 87.1914 39.2617V35.2188ZM93.8125 29.125C94.1641 29.138 94.4635 29.2682 94.7109 29.5156C94.9583 29.75 95.0885 30.043 95.1016 30.3945V32.0938H101.156C102.068 32.1068 102.816 32.3672 103.402 32.875C104.001 33.3698 104.424 33.9297 104.672 34.5547C104.932 35.1927 105.062 35.8503 105.062 36.5273H105.082V39.9258C105.082 40.2904 104.945 40.5964 104.672 40.8438C104.411 41.0781 104.099 41.1953 103.734 41.1953C102.953 41.1302 102.523 40.707 102.445 39.9258V36.5078C102.445 36.2604 102.393 36 102.289 35.7266C102.198 35.4531 102.061 35.2188 101.879 35.0234C101.697 34.8151 101.482 34.7109 101.234 34.7109H95.1016V39.9648C95.0234 40.7461 94.5938 41.1693 93.8125 41.2344C93.4479 41.2344 93.1289 41.1172 92.8555 40.8828C92.5951 40.6354 92.4648 40.3294 92.4648 39.9648V30.3945C92.4779 30.0299 92.6146 29.7305 92.875 29.4961C93.1354 29.2487 93.4479 29.125 93.8125 29.125ZM111.781 29.125C112.146 29.125 112.458 29.2487 112.719 29.4961C112.979 29.7305 113.116 30.0299 113.129 30.3945V32.0938H119.77C120.134 32.0938 120.447 32.2174 120.707 32.4648C120.954 32.7253 121.078 33.0378 121.078 33.4023C121.078 33.7669 120.948 34.0794 120.688 34.3398C120.44 34.5872 120.134 34.7109 119.77 34.7109H113.129V35.1016C113.116 35.6354 113.148 36.1302 113.227 36.5859C113.318 37.0286 113.526 37.4258 113.852 37.7773C114.177 38.1289 114.587 38.3177 115.082 38.3438H119.848C120.212 38.3568 120.512 38.4935 120.746 38.7539C120.993 39.0143 121.117 39.3268 121.117 39.6914C121.104 40.043 120.974 40.3424 120.727 40.5898C120.492 40.8242 120.199 40.9479 119.848 40.9609H114.418C113.507 40.9089 112.751 40.6029 112.152 40.043C111.566 39.4701 111.143 38.7734 110.883 37.9531C110.635 37.1328 110.505 36.2604 110.492 35.3359V34.7109H108.246C107.882 34.7109 107.576 34.5807 107.328 34.3203C107.068 34.0729 106.938 33.7669 106.938 33.4023C106.938 33.0378 107.061 32.7318 107.309 32.4844C107.569 32.224 107.882 32.0938 108.246 32.0938H110.492V30.3945C110.505 30.043 110.635 29.75 110.883 29.5156C111.13 29.2682 111.43 29.138 111.781 29.125Z" fill="white"/>
</svg>
