<svg width="53" height="53" viewBox="0 0 53 53" fill="none" xmlns="http://www.w3.org/2000/svg">
<path d="M30.162 13.6232C23.8401 9.9563 13.5208 9.9563 7.14879 13.6332C4.15311 15.3564 2.50003 17.6307 2.50003 20.0252C2.49001 22.7904 4.6741 24.9745 7.06862 26.3571C13.3905 30.034 23.7199 30.034 30.0919 26.3571C32.5465 24.9545 34.7406 22.7603 34.7507 19.9751C34.7507 17.6007 33.1276 15.3464 30.162 13.6232ZM28.549 24.8643C26.0343 26.317 22.5176 27.1586 18.8808 27.1586C15.264 27.1586 11.7574 26.317 9.26275 24.8643C7.55953 23.8824 5.79621 22.2594 5.79621 20.2757C5.79621 18.6326 7.08868 16.9394 9.33289 15.637C14.5827 12.5913 23.3792 12.5913 28.6091 15.637C30.8133 16.9193 32.0756 18.5925 32.0756 20.2356C32.0756 22.2494 30.2722 23.8724 28.549 24.8643Z" fill="#B1FE33"/>
<path d="M31.848 27.3401C32.4493 26.9895 33.0475 26.9533 33.5316 27.2361L34.1654 27.6039C34.5595 26.8063 34.7709 25.9879 34.7709 25.1612L34.7637 23.4705C34.0133 24.6982 32.5976 26.1236 30.6189 27.2657C27.2905 29.1877 22.9255 30.1488 18.5667 30.1488C14.2069 30.1488 9.85322 29.1873 6.54513 27.2646C4.61957 26.1459 3.24204 24.7536 2.50732 23.5729L2.51344 25.2529C2.54781 33.2171 19.9322 37.4345 30.1165 31.5654C30.1408 31.5509 30.1653 31.5341 30.1897 31.5195C30.0551 31.2607 29.981 30.9455 29.981 30.588C29.981 29.3747 30.8014 27.9485 31.848 27.3401Z" fill="#B1FE33"/>
<path d="M9.33306 18.9583C14.6146 15.9128 23.357 15.9137 28.604 18.9583C29.6145 19.5451 30.4367 20.2196 31.0254 20.9385C31.0945 20.7022 31.13 20.4681 31.13 20.2379C31.13 18.9422 30.0362 17.5644 28.1299 16.4572C23.1947 13.5775 14.764 13.5845 9.80618 16.4572C7.85751 17.5814 6.73975 18.9745 6.73975 20.2794C6.73975 20.5158 6.77534 20.7532 6.84596 20.9898C7.44517 20.2548 8.28849 19.5625 9.33306 18.9583Z" fill="#B1FE33"/>
<path d="M33.0046 28.137C32.8238 28.0319 32.5542 28.1365 32.3717 28.242C31.642 28.6664 31.0244 29.7412 31.0244 30.588C31.0244 30.934 31.1294 31.1129 31.218 31.1608C31.0843 31.0829 33.2935 32.3683 33.6208 32.5588C33.9539 31.4406 34.7112 30.2486 35.4281 29.5449C35.5683 29.6264 33.2956 28.3061 33.0046 28.137Z" fill="#B1FE33"/>
<path d="M47.9308 35.3152C47.9329 35.314 48.2654 35.1457 48.3466 35.1109C48.2283 35.0442 44.11 32.7231 43.9624 32.638C42.1166 31.5784 38.5964 36.9632 40.3732 38.5266L44.8928 41.1115C44.6424 38.9738 46.1075 36.3682 47.9308 35.3152Z" fill="#B1FE33"/>
<path d="M41.9617 31.9353C42.1013 31.8553 42.2409 31.7855 42.3785 31.7259L38.4673 29.4733C38.3228 29.3892 38.1553 29.3474 37.9703 29.3473C36.4899 29.3481 34.4263 31.8957 34.4263 34.0897C34.4263 34.7573 34.626 35.2398 34.9888 35.4472L38.914 37.6921C38.682 35.6187 40.1558 32.9728 41.9617 31.9353Z" fill="#B1FE33"/>
<path d="M48.4576 36.2208C47.0634 37.0213 45.8966 39.0473 45.9098 40.6453C45.9098 42.0036 46.7208 42.5161 47.9501 41.8077C49.3371 41.0066 50.504 38.9847 50.5 37.3918C50.4959 36.0707 49.7248 35.4927 48.4576 36.2208Z" fill="#B1FE33"/>
</svg>
