<svg width="53" height="53" viewBox="0 0 53 53" fill="none" xmlns="http://www.w3.org/2000/svg">
<path d="M20.1519 34.3776C20.2777 34.9057 20.4089 35.422 20.5508 35.9137C22.2929 41.8518 25.1111 44.941 29.1471 45.3505L29.0979 29.2094L20.1519 34.3776Z" fill="#B1FE33"/>
<path d="M29.0577 16.042C25.7148 18.0807 22.2842 20.6784 18.7969 23.8209C18.9641 27.3922 19.3375 30.571 19.9099 33.3121L29.0942 28.0062L29.0577 16.042Z" fill="#B1FE33"/>
<path d="M44.2678 6.23611C44.226 6.19955 44.1748 6.18038 44.1231 6.16184C44.098 6.15235 44.0726 6.14318 44.0432 6.13796C43.9838 6.12764 43.9207 6.12324 43.8494 6.13108C43.8441 6.13159 43.8395 6.1305 43.8342 6.13114C34.1521 7.39709 25.1522 13.5946 17.9464 20.068C17.2789 20.6684 16.6101 21.2824 15.9394 21.9192C15.3618 22.4655 14.9307 23.2816 14.7792 24.0301C14.6019 24.9316 14.5369 44.0346 22.8611 49.0878C24.7342 50.2189 26.9453 50.6803 29.4672 50.4366C38.8091 40.8833 44.575 24.2764 44.5261 7.03557C44.5276 6.67176 44.4339 6.38183 44.2678 6.23611ZM40.2784 22.5439C40.2753 22.559 40.2741 22.5736 40.2697 22.5883C40.115 23.4211 39.9641 24.2551 39.7803 25.0794C37.8359 33.7202 34.4892 41.0422 30.1011 46.2553C29.9981 46.3781 29.8504 46.4413 29.7016 46.4413C29.6985 46.4413 29.6949 46.4413 29.6919 46.4413C29.6858 46.4413 29.6801 46.4412 29.6741 46.4409L29.672 46.4413H29.6705L29.6658 46.4404C24.8901 46.2525 21.4861 42.8094 19.5485 36.2052C18.5686 32.8081 17.9613 28.5753 17.7432 23.6216C17.7366 23.4662 17.7992 23.3164 17.9144 23.2119C21.8226 19.6711 25.6686 16.7917 29.3454 14.6532C33.3015 12.3643 37.1597 10.876 40.8768 10.1871C41.2138 10.1287 41.5001 10.3889 41.4938 10.7104C41.4177 14.6917 40.9978 18.6577 40.2784 22.5439Z" fill="#B1FE33"/>
<path d="M15.224 21.1575C15.7226 20.6847 16.2199 20.2282 16.7169 19.7751C23.9067 13.2141 32.6918 7.06171 42.2289 5.33228C42.3519 5.30999 42.4762 5.28056 42.599 5.25986L37.9632 2.55778C37.8643 2.50631 37.7441 2.48797 37.606 2.50784C27.1149 3.8764 17.3391 11.0533 9.69954 18.2949C8.96071 18.9976 8.45626 20.1078 8.47461 20.9944C8.68116 28.9259 9.8696 41.5572 16.7719 45.568L18.9381 46.8248C14.2167 40.4274 12.0467 24.1417 15.224 21.1575Z" fill="#B1FE33"/>
<path d="M30.1356 27.4043L39.3041 22.1075C39.9462 18.5679 40.3332 14.9609 40.4347 11.3381C37.082 12.0408 33.6091 13.4147 30.0991 15.4211L30.1356 27.4043Z" fill="#B1FE33"/>
<path d="M30.1879 44.4457C34.0296 39.45 36.9899 32.7267 38.7623 24.8512C38.8643 24.3935 38.9426 23.9288 39.0355 23.4683L30.1396 28.6075L30.1879 44.4457Z" fill="#B1FE33"/>
</svg>
