<svg width="57" height="57" viewBox="0 0 57 57" fill="none" xmlns="http://www.w3.org/2000/svg">
<path d="M28.5 4.75C15.39 4.75 4.75 15.39 4.75 28.5C4.75 41.61 15.39 52.25 28.5 52.25C41.61 52.25 52.25 41.61 52.25 28.5C52.25 15.39 41.61 4.75 28.5 4.75ZM39.52 20.9C39.1637 24.6525 37.62 33.7725 36.8363 37.9762C36.5037 39.7575 35.8387 40.3512 35.2213 40.4225C33.8438 40.5413 32.7987 39.52 31.4688 38.6413C29.3787 37.2638 28.1913 36.4088 26.1725 35.0788C23.8213 33.535 25.3412 32.68 26.695 31.3025C27.0512 30.9463 33.1313 25.4125 33.25 24.9137C33.2665 24.8382 33.2643 24.7598 33.2436 24.6853C33.2229 24.6108 33.1843 24.5425 33.1313 24.4863C32.9888 24.3675 32.7987 24.415 32.6325 24.4387C32.4187 24.4862 29.0938 26.695 22.61 31.065C21.66 31.7062 20.805 32.0387 20.045 32.015C19.19 31.9912 17.575 31.54 16.3637 31.1362C14.8675 30.6612 13.7037 30.4 13.7987 29.5688C13.8462 29.1412 14.44 28.7137 15.5563 28.2625C22.4913 25.2462 27.0988 23.2513 29.4025 22.3013C36.005 19.5463 37.3588 19.0712 38.2613 19.0712C38.4513 19.0712 38.9025 19.1187 39.1875 19.3562C39.425 19.5462 39.4963 19.8075 39.52 19.9975C39.4963 20.14 39.5437 20.5675 39.52 20.9Z" fill="#D4FF00"/>
</svg>
