<svg width="49" height="48" viewBox="0 0 49 48" fill="none" xmlns="http://www.w3.org/2000/svg">
<g clip-path="url(#clip0_2063_1849)">
<path d="M24.5 0.959961C11.5101 0.959961 0.97998 11.2752 0.97998 24C0.97998 36.7248 11.5101 47.04 24.5 47.04C37.4899 47.04 48.02 36.7248 48.02 24C48.02 11.2752 37.4899 0.959961 24.5 0.959961ZM33.5454 26.9544C33.5454 26.9544 35.6254 28.9656 36.1375 29.8992C36.1522 29.9184 36.1595 29.9376 36.1644 29.9472C36.3727 30.2904 36.4217 30.5568 36.3188 30.756C36.1473 31.0872 35.5593 31.2504 35.3584 31.2648H31.6834C31.4286 31.2648 30.8945 31.2 30.2477 30.7632C29.7503 30.4224 29.2603 29.8632 28.7826 29.3184C28.0696 28.5072 27.4522 27.8064 26.8299 27.8064C26.7509 27.8062 26.6723 27.8184 26.5972 27.8424C26.1268 27.9912 25.5241 28.6488 25.5241 30.4008C25.5241 30.948 25.0831 31.2624 24.7719 31.2624H23.0888C22.5155 31.2624 19.5289 31.0656 16.8829 28.332C13.644 24.984 10.7285 18.2688 10.704 18.2064C10.5203 17.772 10.9 17.5392 11.3141 17.5392H15.0258C15.5207 17.5392 15.6824 17.8344 15.7951 18.096C15.9274 18.4008 16.4125 19.6128 17.2088 20.976C18.4999 23.1984 19.2913 24.1008 19.9258 24.1008C20.0448 24.0994 20.1617 24.0697 20.2664 24.0144C21.0945 23.5632 20.9401 20.6712 20.9034 20.0712C20.9034 19.9584 20.9009 18.7776 20.4771 18.2112C20.1733 17.8008 19.6563 17.6448 19.3427 17.5872C19.4697 17.4156 19.6369 17.2765 19.8303 17.1816C20.3987 16.9032 21.4228 16.8624 22.4395 16.8624H23.0055C24.108 16.8768 24.3922 16.9464 24.7915 17.0448C25.6 17.2344 25.6172 17.7456 25.5461 19.4952C25.5241 19.992 25.502 20.5536 25.502 21.216C25.502 21.36 25.4947 21.5136 25.4947 21.6768C25.4702 22.5672 25.4408 23.5776 26.0827 23.9928C26.1664 24.0442 26.2632 24.0716 26.362 24.072C26.5849 24.072 27.2562 24.072 29.0741 21.0168C29.6348 20.0334 30.122 19.0115 30.5319 17.9592C30.5686 17.8968 30.6764 17.7048 30.8038 17.6304C30.8979 17.5834 31.0021 17.5595 31.1076 17.5608H35.4711C35.9464 17.5608 36.2722 17.6304 36.3335 17.8104C36.4413 18.096 36.3139 18.9672 34.322 21.6096L33.4327 22.7592C31.627 25.0776 31.627 25.1952 33.5454 26.9544Z" fill="#D4FF00"/>
</g>
<defs>
<clipPath id="clip0_2063_1849">
<rect width="49" height="48" fill="white"/>
</clipPath>
</defs>
</svg>
