<svg width="49" height="48" viewBox="0 0 49 48" fill="none" xmlns="http://www.w3.org/2000/svg">
<ellipse cx="24.5" cy="24" rx="24.5" ry="24" fill="#D4FF00"/>
<path d="M24.0013 10.6665C31.3653 10.6665 37.3347 16.6358 37.3347 23.9998C37.3347 31.3638 31.3653 37.3332 24.0013 37.3332C21.645 37.337 19.3302 36.7134 17.2947 35.5265L10.6733 37.3332L12.476 30.7092C11.2881 28.673 10.6641 26.3572 10.668 23.9998C10.668 16.6358 16.6373 10.6665 24.0013 10.6665ZM19.4573 17.7332L19.1907 17.7438C19.018 17.7544 18.8493 17.7997 18.6947 17.8772C18.55 17.9591 18.418 18.0615 18.3027 18.1812C18.1427 18.3318 18.052 18.4625 17.9547 18.5892C17.4615 19.2304 17.196 20.0176 17.2 20.8265C17.2027 21.4798 17.3733 22.1158 17.64 22.7105C18.1853 23.9132 19.0827 25.1865 20.2667 26.3665C20.552 26.6505 20.832 26.9358 21.1333 27.2012C22.6045 28.4965 24.3577 29.4306 26.2533 29.9292L27.0107 30.0452C27.2573 30.0585 27.504 30.0398 27.752 30.0278C28.1403 30.0078 28.5195 29.9026 28.8627 29.7198C29.0373 29.6299 29.2077 29.532 29.3733 29.4265C29.3733 29.4265 29.4307 29.3892 29.54 29.3065C29.72 29.1732 29.8307 29.0785 29.98 28.9225C30.0907 28.8078 30.1867 28.6732 30.26 28.5198C30.364 28.3025 30.468 27.8878 30.5107 27.5425C30.5427 27.2785 30.5333 27.1345 30.5293 27.0452C30.524 26.9025 30.4053 26.7545 30.276 26.6918L29.5 26.3438C29.5 26.3438 28.34 25.8385 27.6307 25.5158C27.5564 25.4834 27.4769 25.4649 27.396 25.4612C27.3048 25.4518 27.2126 25.4621 27.1257 25.4913C27.0387 25.5205 26.959 25.568 26.892 25.6305C26.8853 25.6278 26.796 25.7038 25.832 26.8718C25.7767 26.9462 25.7004 27.0024 25.6131 27.0332C25.5257 27.0641 25.4311 27.0683 25.3413 27.0452C25.2545 27.0219 25.1694 26.9925 25.0867 26.9572C24.9213 26.8878 24.864 26.8612 24.7507 26.8132C23.9854 26.4792 23.2769 26.028 22.6507 25.4758C22.4827 25.3292 22.3267 25.1692 22.1667 25.0145C21.6421 24.5121 21.185 23.9438 20.8067 23.3238L20.728 23.1972C20.6715 23.1121 20.6258 23.0202 20.592 22.9238C20.5413 22.7278 20.6733 22.5705 20.6733 22.5705C20.6733 22.5705 20.9973 22.2158 21.148 22.0238C21.2947 21.8372 21.4187 21.6558 21.4987 21.5265C21.656 21.2732 21.7053 21.0132 21.6227 20.8118C21.2493 19.8998 20.8627 18.9918 20.4653 18.0905C20.3867 17.9118 20.1533 17.7838 19.9413 17.7585C19.8693 17.7505 19.7973 17.7425 19.7253 17.7372C19.5463 17.7283 19.3668 17.7301 19.188 17.7425L19.4573 17.7332Z" fill="#172224"/>
</svg>
