<svg width="49" height="48" viewBox="0 0 49 48" fill="none" xmlns="http://www.w3.org/2000/svg">
<ellipse cx="24.5" cy="24" rx="24.5" ry="24" fill="#D4FF00"/>
<path d="M39.37 17.4954C39.1958 16.8934 38.8638 16.3451 38.406 15.9035C37.9483 15.462 37.3804 15.1422 36.7572 14.9751C34.4182 14.3706 25.015 14.3706 25.015 14.3706C25.015 14.3706 15.6297 14.3561 13.2663 14.9751C12.6442 15.1429 12.0774 15.4631 11.6206 15.9046C11.1639 16.3461 10.8327 16.894 10.6591 17.4954C10.2149 19.8101 9.99615 22.1601 10.0057 24.5143C10.0013 26.8572 10.2201 29.1955 10.6591 31.4997C10.8333 32.1014 11.1646 32.6497 11.6211 33.092C12.0777 33.5343 12.6442 33.8557 13.2663 34.0254C15.6054 34.6299 25.015 34.6299 25.015 34.6299C25.015 34.6299 34.3947 34.6299 36.7572 34.0254C37.3803 33.8564 37.9479 33.5354 38.4055 33.093C38.8631 32.6507 39.1953 32.102 39.37 31.4997C39.8004 29.1969 40.0104 26.8551 39.9954 24.5143C40.0104 22.158 39.805 19.8127 39.37 17.4954ZM22.0113 28.8525V20.157L29.8385 24.5143L22.0113 28.8525Z" fill="#172224"/>
</svg>
